HIERARCHY
ROOT Hips
{
  OFFSET 0 0 0
  CHANNELS 6 Xposition Yposition Zposition Zrotation Yrotation Xrotation
  JOINT LeftThigh
  {
    OFFSET 8.409438 0 -5.917753
    CHANNELS 3 Zrotation Yrotation Xrotation
    JOINT LeftLeg
    {
      OFFSET 0 0 -42.358652
      CHANNELS 3 Zrotation Yrotation Xrotation
      JOINT LeftFoot
      {
        OFFSET 0 0 -39.357303
        CHANNELS 3 Zrotation Yrotation Xrotation
      }
    }
  }
  JOINT RightThigh
  {
    OFFSET -8.409438 0 -5.917753
    CHANNELS 3 Zrotation Yrotation Xrotation
    JOINT RightLeg
    {
      OFFSET 0 0 -42.358652
      CHANNELS 3 Zrotation Yrotation Xrotation
      JOINT RightFoot
      {
        OFFSET 0 0 -39.357303
        CHANNELS 3 Zrotation Yrotation Xrotation
      }
    }
  }
  JOINT SpineLow
  {
    OFFSET 0 0 4.719101
    CHANNELS 3 Zrotation Yrotation Xrotation
    JOINT SpineMid
    {
      OFFSET 0 0 12.899191
      CHANNELS 3 Zrotation Yrotation Xrotation
      JOINT Chest
      {
        OFFSET 0 0 12.899191
        CHANNELS 3 Zrotation Yrotation Xrotation
        JOINT LeftShoulder
        {
          OFFSET 7.550562 1.41573 9.438202
          CHANNELS 3 Zrotation Yrotation Xrotation
          JOINT LeftArm
          {
            OFFSET 9.155056 0 4.247191
            CHANNELS 3 Zrotation Yrotation Xrotation
            JOINT LeftForearm
            {
              OFFSET 0 0 25.771955
              CHANNELS 3 Zrotation Yrotation Xrotation
              JOINT LeftHand
              {
                OFFSET 0 0 25.197169
                CHANNELS 3 Zrotation Yrotation Xrotation
              }
            }
          }
        }
        JOINT RightShoulder
        {
          OFFSET -7.550562 1.41573 9.438202
          CHANNELS 3 Zrotation Yrotation Xrotation
          JOINT RightArm
          {
            OFFSET -9.155056 0 4.247191
            CHANNELS 3 Zrotation Yrotation Xrotation
            JOINT RightForearm
            {
              OFFSET 0 0 -25.771955
              CHANNELS 3 Zrotation Yrotation Xrotation
              JOINT RightHand
              {
                OFFSET 0 0 -25.197169
                CHANNELS 3 Zrotation Yrotation Xrotation
              }
            }
          }
        }
        JOINT Neck
        {
          OFFSET 0 0 15.101124
          CHANNELS 3 Zrotation Yrotation Xrotation
          JOINT Head
          {
            OFFSET 0 0 11.325843
            CHANNELS 3 Zrotation Yrotation Xrotation
            End Site
            {
              OFFSET 0 0 14.157303
            }
          }
        }
      }
    }
  }
}
MOTION
Frames: 17
Frame Time: 0.0
0.0  89.887642  0.0  14.30282  41.434479  -82.405196  26.377464  -31.037431  8.181179  8.395866  14.024012  31.417223  -7.739937  0.580447  0.061115  -31.859498  14.452862  -50.677692  6.137849  7.216787  66.281286  1.563004  3.487229  1.424921  1.670982  -0.341929  1.52559  4.544149  -1.039039  4.144453  4.544149  -1.039039  4.144453  -19.092554  23.911504  8.849782  114.494376  52.908882  -167.10466  -17.127948  -0.375115  81.774175  53.689381  -1.189344  25.812224  -10.711006  4.242912  10.598684  4.734046  55.762489  -10.965659  -39.67975  -14.604761  -84.196257  49.987451  -31.46494  -51.087502  -43.34359  0.325165  -10.779471  -32.51461  1.017229  -8.110422  
0.0  89.887642  0.0  14.330047  41.208234  -82.258218  26.391122  -30.832045  7.34569  8.397769  14.646508  32.618764  -7.27018  0.473382  0.047264  -31.547177  14.983201  -51.294444  6.013837  6.342853  66.638648  1.232778  3.376287  1.398045  1.654867  -0.269378  1.588321  4.503705  -0.844175  4.320966  4.503705  -0.844175  4.320966  -18.780271  23.369782  8.515856  116.463448  52.315165  -165.869176  -17.053912  0.318288  81.578943  54.480897  -0.143561  26.678594  -10.406915  3.577455  10.341156  5.363231  55.026412  -10.649207  -39.674017  -14.935853  -84.061437  51.221779  -32.337438  -51.276286  -43.165516  0.176923  -10.436657  -32.382957  0.877639  -7.862015  
0.0  89.887642  0.0  14.244821  41.110181  -82.138463  26.569239  -30.722589  6.500247  8.208898  15.199826  33.602922  -7.006455  0.373932  -0.061395  -31.467533  15.197495  -51.812459  5.87283  5.459155  66.640275  0.773997  3.460621  1.605403  1.515888  -0.236404  1.656382  4.125268  -0.749306  4.510872  4.125268  -0.749306  4.510872  -17.973833  22.97118  7.912693  118.618934  51.880718  -164.519512  -16.49703  1.072262  81.154951  55.319198  0.516238  27.463247  -9.542  3.290546  9.900907  6.304763  54.198348  -10.149825  -39.715829  -15.242108  -83.926042  52.619182  -33.133311  -51.695894  -42.607702  0.025144  -10.260677  -31.966643  0.740908  -7.738864  
0.0  89.887642  0.0  14.048869  41.207177  -82.108465  26.45893  -30.60091  5.847498  8.458184  15.329187  34.371158  -6.992652  0.340526  -0.023166  -31.781772  14.966145  -52.123186  5.868914  4.955797  66.408899  0.432858  3.613469  1.793901  1.326222  -0.243066  1.702617  3.606067  -0.757107  4.639182  3.606067  -0.757107  4.639182  -16.962418  22.658359  7.410203  120.53916  51.559321  -163.270578  -15.782885  1.572853  80.670607  55.923704  0.798231  27.926368  -8.585363  3.22961  9.501829  7.544531  53.365761  -9.465478  -39.899944  -15.442965  -83.76602  54.124691  -33.799019  -52.348458  -41.997818  -0.072943  -10.173631  -31.510481  0.65035  -7.678723  
0.0  89.887642  0.0  13.762513  41.426255  -82.156902  26.516086  -30.516702  5.304104  7.563587  15.845892  34.445096  -6.100584  0.371701  0.179014  -32.367722  14.417963  -52.361136  6.093945  4.989025  66.263202  0.4826  3.610603  1.851435  1.1967  -0.2756  1.705211  3.249924  -0.837019  4.646304  3.249924  -0.837019  4.646304  -16.412001  22.426124  7.196924  121.791132  51.22184  -162.546614  -15.28775  1.579307  80.399098  56.053331  0.970786  27.978803  -8.107126  3.24641  9.283531  8.898634  52.56281  -8.681242  -40.183319  -15.485848  -83.595529  55.51807  -34.26506  -53.080147  -41.717554  -0.097317  -10.076035  -31.300381  0.620453  -7.606168  
0.0  89.887642  0.0  13.414412  41.551837  -82.267374  26.810713  -30.429626  4.822391  7.27648  15.774866  34.640046  -6.232025  0.324443  0.17663  -32.907344  13.742417  -52.62966  6.369061  5.358256  66.288943  0.681166  3.491099  1.787995  1.201488  -0.304367  1.70513  3.261007  -0.915915  4.644632  3.261007  -0.915915  4.644631  -16.659762  22.150449  7.006559  121.948463  50.896983  -162.662044  -15.285407  1.380118  80.197656  55.981892  1.001605  27.915647  -8.321834  3.141219  9.074512  10.06251  51.835685  -7.977428  -40.504726  -15.366789  -83.464365  56.573298  -34.492765  -53.662073  -41.911458  -0.222526  -10.001035  -31.447689  0.524072  -7.558677  
0.0  89.887642  0.0  13.132629  41.54103  -82.318165  27.061298  -30.273332  4.501722  6.826097  15.786323  34.608015  -6.143173  0.29989  0.182643  -33.253837  13.138566  -52.96064  6.450074  5.782773  66.279467  0.999143  3.350128  1.702943  1.263965  -0.311795  1.70441  3.431194  -0.940542  4.641363  3.431194  -0.940542  4.641363  -17.321054  21.881371  6.718612  121.307268  50.614936  -163.432769  -15.635386  1.012518  80.115989  55.765803  0.942529  27.831344  -8.795669  3.000941  8.934514  10.886917  51.187388  -7.500679  -40.784402  -15.121813  -83.466764  57.178976  -34.516284  -53.997655  -42.260684  -0.438211  -9.982001  -31.71304  0.365851  -7.56018  
0.0  89.887642  0.0  12.960705  41.313125  -82.368087  26.993556  -30.123188  4.550077  6.832156  15.769745  34.581563  -6.165478  0.285378  0.16481  -33.257332  12.823108  -53.254902  6.52644  5.85603  66.279874  1.274671  3.213725  1.62405  1.323398  -0.299947  1.716898  3.594202  -0.913018  4.675213  3.594202  -0.913018  4.675213  -17.788983  21.722072  6.477821  120.27137  50.46054  -164.402836  -15.808415  0.324528  80.130754  55.343899  0.640308  27.637341  -9.035331  2.897583  8.935585  11.187044  50.650742  -7.354768  -40.943119  -14.817691  -83.638715  57.459456  -34.392633  -54.217373  -42.476471  -0.671872  -10.04498  -31.878711  0.197553  -7.624619  
0.0  89.887642  0.0  12.840555  40.768572  -82.417124  27.038634  -30.004096  4.80742  6.868077  15.854338  34.47315  -6.156803  0.272064  0.075269  -32.736649  12.716208  -53.519485  6.408284  5.795543  66.263927  1.43213  3.155742  1.587537  1.370095  -0.270957  1.758583  3.723227  -0.839482  4.790022  3.723227  -0.839482  4.790023  -18.025334  21.605966  6.127968  119.282578  50.425526  -165.221855  -16.029034  -0.580868  80.088942  54.912813  0.263951  27.695792  -8.942667  2.818807  8.892176  11.149113  50.257063  -7.472484  -40.981246  -14.508298  -83.897455  57.557368  -34.129032  -54.395002  -42.445978  -0.970158  -10.221422  -31.860957  -0.015671  -7.778419  
0.0  89.887642  0.0  12.759053  39.95544  -82.451154  27.296648  -29.793052  5.249562  6.796462  15.894777  34.198384  -6.04338  0.300497  0.035734  -31.685813  12.890146  -53.648657  6.025224  5.606286  66.178413  1.382321  3.151844  1.549856  1.450765  -0.243147  1.747666  3.945739  -0.768719  4.760708  3.945739  -0.768719  4.760708  -18.21667  21.652785  6.173913  118.51381  50.495186  -165.868578  -16.172275  -1.466234  80.222054  54.630681  -0.070676  27.742553  -8.895945  2.891524  9.331137  10.887788  50.018617  -7.935983  -40.979126  -14.212608  -84.121321  57.575969  -33.795784  -54.567723  -42.359067  -1.034781  -10.364754  -31.797271  -0.055882  -7.890705  
0.0  89.887642  0.0  12.649011  38.937248  -82.46953  27.931488  -29.541293  5.573264  5.460562  16.461679  32.955929  -5.042439  0.449206  0.532325  -30.403101  13.14335  -53.783795  5.687232  5.222793  66.114849  1.189325  3.168005  1.480877  1.567052  -0.208157  1.716041  4.266271  -0.679494  4.675026  4.266271  -0.679494  4.675026  -18.560868  21.636186  6.300769  117.944925  50.543494  -166.417213  -16.557692  -2.346069  80.558149  54.443118  -0.211669  27.84618  -9.022611  2.954426  9.884496  10.685447  49.89619  -8.598037  -40.961379  -13.908337  -84.28678  57.552184  -33.56573  -54.662043  -42.255154  -1.021618  -10.480021  -31.719558  -0.039692  -7.976337  
0.0  89.887642  0.0  12.460331  37.690663  -82.542612  28.797569  -29.248484  5.955642  4.971959  16.389276  32.423518  -4.97371  0.51652  0.569218  -28.835262  13.351876  -53.809842  5.247697  5.027649  65.957564  1.179674  3.183084  1.411017  1.696699  -0.174825  1.682897  4.623127  -0.595314  4.585279  4.623127  -0.595314  4.585279  -18.954429  21.577201  6.334697  117.601412  50.509238  -166.898939  -16.955331  -3.108369  81.110574  54.285506  -0.366296  27.682608  -9.200258  2.908958  10.195309  10.907869  49.929952  -9.059038  -40.892941  -13.638861  -84.391832  57.540353  -33.556248  -54.553443  -42.043373  -0.985094  -10.601589  -31.560569  -0.007375  -8.064692  
0.0  89.887642  0.0  12.220216  36.333345  -82.725225  29.598883  -28.948893  6.463205  4.423033  16.249356  31.783407  -5.115324  0.579262  0.513497  -27.489898  13.497576  -53.836289  5.190889  4.52489  65.793677  1.228759  3.163969  1.33047  1.817546  -0.138778  1.658658  4.955964  -0.503446  4.520485  4.955963  -0.503446  4.520485  -19.359323  21.429783  6.279689  117.613025  50.393639  -167.202645  -17.158959  -3.455651  81.605766  54.432789  -0.832978  27.207674  -9.415071  2.839875  10.425418  11.35597  50.055619  -9.590822  -40.740698  -13.491516  -84.44826  57.509019  -33.816243  -54.145718  -41.723675  -0.961462  -10.680508  -31.320628  0.010267  -8.121372  
0.0  89.887642  0.0  11.947588  34.905858  -82.919781  30.131352  -28.584873  7.165296  4.224558  15.913963  31.112888  -5.100683  0.649017  0.591675  -25.980291  13.404384  -53.704391  5.255892  4.133193  65.501877  1.353979  3.173959  1.2523  1.912194  -0.101058  1.622461  5.217366  -0.404075  4.423711  5.217366  -0.404075  4.423711  -19.6789  21.245717  6.234659  117.939458  50.277932  -167.297399  -17.203887  -2.794943  82.435121  55.594101  -1.41333  26.0978  -9.476836  2.723248  10.565228  11.993079  50.369697  -10.036865  -40.539761  -13.571604  -84.492985  57.437406  -34.456975  -53.464513  -41.280392  -0.936304  -10.685496  -30.987657  0.021727  -8.121752  
0.0  89.887642  0.0  11.690463  33.368538  -83.068156  30.173166  -28.087364  8.110799  4.404471  15.521818  30.376616  -5.162204  0.708146  0.59302  -24.53647  13.120221  -53.606879  5.504983  3.757409  65.170117  1.559546  3.264131  1.204032  1.987592  -0.004184  1.651932  5.429691  -0.147072  4.511547  5.429692  -0.147072  4.511547  -20.060453  20.572465  5.708295  118.597845  50.195526  -167.157578  -18.103818  -2.303383  82.992592  56.626533  -1.980562  25.875673  -9.36103  2.279599  10.187511  12.653405  50.808997  -10.552484  -40.256286  -13.932374  -84.587115  57.281477  -35.533937  -52.52008  -40.733347  -1.293846  -10.664859  -30.582712  -0.259051  -8.128008  
0.0  89.887642  0.0  11.487444  31.847103  -83.253158  29.675175  -27.458593  9.40317  4.909779  14.996531  29.560596  -5.02436  0.758197  0.645038  -23.10388  12.679766  -53.346911  5.950979  3.467674  64.860837  1.535553  3.404763  1.083735  2.013897  0.060727  1.690696  5.505936  0.025099  4.622719  5.505937  0.025099  4.622719  -20.336173  20.068082  4.995235  119.613718  50.216963  -166.747454  -18.646097  -1.969783  84.460143  57.214984  -2.125353  25.012249  -9.012307  2.084551  9.772633  13.128647  51.385504  -11.317436  -39.856719  -14.456716  -84.744111  56.835929  -36.866168  -51.263252  -40.055779  -1.606551  -10.720682  -30.07934  -0.503134  -8.187657  
0.0  89.887642  0.0  11.384691  30.400667  -83.448994  28.746022  -26.680768  10.981088  5.575134  14.356925  28.666317  -4.748033  0.772372  0.675938  -21.816189  12.192155  -53.011191  6.527694  3.32429  64.572412  1.440934  3.482802  0.950222  1.994947  0.113357  1.681228  5.457848  0.17087  4.601231  5.457848  0.17087  4.601231  -20.365549  19.746713  4.554994  120.874166  50.48018  -166.048046  -19.18567  -2.00127  86.45013  57.495676  -2.038807  24.119462  -8.49054  2.091857  9.674787  13.307413  52.032534  -12.421195  -39.379454  -14.935715  -85.00639  56.018479  -38.151182  -49.664695  -39.286895  -1.725509  -10.650339  -29.503912  -0.610953  -8.138595  
